<?xml version="1.0" encoding="UTF-8"?>
<svg width="700pt" height="700pt" version="1.1" viewBox="0 0 700 700" xmlns="http://www.w3.org/2000/svg">
 <g>
  <path d="m367.5 245v70c0 6.2539-3.3359 12.031-8.75 15.156s-12.086 3.125-17.5 0-8.75-8.9023-8.75-15.156v-70c-23.207 0-45.461 9.2188-61.871 25.629s-25.629 38.664-25.629 61.871v105c0 23.207 9.2188 45.461 25.629 61.871s38.664 25.629 61.871 25.629h35c23.207 0 45.461-9.2188 61.871-25.629s25.629-38.664 25.629-61.871v-105c0-23.207-9.2188-45.461-25.629-61.871s-38.664-25.629-61.871-25.629z"/>
  <path d="m367.5 245v-192.5c0-6.2539-3.3359-12.031-8.75-15.156s-12.086-3.125-17.5 0-8.75 8.9023-8.75 15.156v192.5z"/>
 </g>
</svg>
